<?xml version="1.0" encoding="UTF-8"?>
<!DOCTYPE svg PUBLIC "-//W3C//DTD SVG 1.1//EN" "http://www.w3.org/Graphics/SVG/1.1/DTD/svg11.dtd">
<!-- Creator: CorelDRAW 2021.5 -->
<svg xmlns="http://www.w3.org/2000/svg" xml:space="preserve" width="286px" height="275px" version="1.1" style="shape-rendering:geometricPrecision; text-rendering:geometricPrecision; image-rendering:optimizeQuality; fill-rule:evenodd; clip-rule:evenodd"
viewBox="0 0 232.82 224.16"
 xmlns:xlink="http://www.w3.org/1999/xlink"
 xmlns:xodm="http://www.corel.com/coreldraw/odm/2003">
 <defs>
  <style type="text/css">
   <![CDATA[
    .fil1 {fill:black}
    .fil0 {fill:yellow;fill-rule:nonzero}
   ]]>
  </style>
 </defs>
 <g id="Слой_x0020_1">
  <metadata id="CorelCorpID_0Corel-Layer"/>
  <g>
   <polygon class="fil0" points="155.37,222.58 155.37,112.39 228.96,112.39 116.41,2.2 3.86,112.39 77.27,112.39 77.27,222.58 "/>
   <path id="_1" class="fil1" d="M155.37 222.58l0 -110.19 73.59 0 -112.55 -110.19 -112.55 110.19 73.41 0 0 110.19 78.1 0zm1.58 -108.61l0 108.61 0 1.58 -1.58 0 -78.1 0 -1.57 0 0 -1.58 0 -108.61 -71.84 0 -3.85 0 2.75 -2.7 112.55 -110.19 1.1 -1.08 1.1 1.08 112.55 110.19 2.75 2.7 -3.85 0 -72.01 0z"/>
  </g>
 </g>
</svg>
