<?xml version="1.0" encoding="UTF-8"?>
<!DOCTYPE svg PUBLIC "-//W3C//DTD SVG 1.1//EN" "http://www.w3.org/Graphics/SVG/1.1/DTD/svg11.dtd">
<!-- Creator: CorelDRAW 2021.5 -->
<svg xmlns="http://www.w3.org/2000/svg" xml:space="preserve" width="195px" height="286px" version="1.1" style="shape-rendering:geometricPrecision; text-rendering:geometricPrecision; image-rendering:optimizeQuality; fill-rule:evenodd; clip-rule:evenodd"
viewBox="0 0 25.61 37.61"
 xmlns:xlink="http://www.w3.org/1999/xlink"
 xmlns:xodm="http://www.corel.com/coreldraw/odm/2003">
 <defs>
  <style type="text/css">
   <![CDATA[
    .fil1 {fill:black}
    .fil0 {fill:white;fill-rule:nonzero}
   ]]>
  </style>
 </defs>
 <g id="Слой_x0020_1">
  <metadata id="CorelCorpID_0Corel-Layer"/>
  <path class="fil0" d="M5.02 1.91c-3.16,2.02 -4.81,5.44 -5.02,10.19l7.29 0c0,-1.39 0.42,-2.74 1.25,-4.03 0.82,-1.29 2.22,-1.91 4.13,-1.91 2.02,0 3.37,0.51 4.14,1.55 0.73,1.03 1.09,2.22 1.09,3.52 0,1.08 -0.31,2.12 -0.98,3.05 -0.42,0.51 -0.88,1.03 -1.5,1.5l-1.82 1.39c-1.81,1.45 -2.94,2.69 -3.41,3.78 -0.41,1.09 -0.67,3.05 -0.78,5.9l6.83 0c0,-1.35 0.11,-2.33 0.31,-3 0.31,-0.99 0.93,-1.87 1.92,-2.64l1.81 -1.4c1.81,-1.39 3.05,-2.58 3.67,-3.46 1.09,-1.5 1.66,-3.37 1.66,-5.54 0,-3.57 -1.25,-6.26 -3.78,-8.07 -2.48,-1.81 -5.64,-2.74 -9.47,-2.74 -2.89,0 -5.32,0.62 -7.34,1.91zm11.74 35.7l0 -7.3 -7.55 0 0 7.3 7.55 0z"/>
  <g>
   <path id="_1" class="fil1" d="M5.58 2.8c-1.4,0.9 -2.48,2.11 -3.23,3.63 -0.64,1.31 -1.05,2.85 -1.22,4.62l5.18 0c0.06,-0.44 0.16,-0.88 0.29,-1.31 0.24,-0.76 0.59,-1.5 1.05,-2.23l0 -0.01c0.52,-0.81 1.22,-1.42 2.09,-1.82 0.84,-0.39 1.82,-0.58 2.93,-0.58 1.14,0 2.1,0.16 2.91,0.46 0.87,0.33 1.56,0.84 2.07,1.52l0.02 0.03c0.43,0.61 0.74,1.26 0.96,1.95 0.21,0.69 0.32,1.42 0.32,2.17 0,0.65 -0.1,1.29 -0.3,1.92 -0.2,0.61 -0.49,1.19 -0.88,1.74l-0.04 0.04c-0.23,0.29 -0.48,0.58 -0.74,0.85 -0.27,0.28 -0.58,0.56 -0.93,0.83l0 0 -1.81 1.39 -0.01 0c-0.85,0.69 -1.54,1.32 -2.07,1.9l0 0c-0.48,0.53 -0.81,1 -1,1.42l0 0c-0.18,0.48 -0.33,1.16 -0.44,2.05 -0.1,0.7 -0.17,1.5 -0.22,2.43l4.71 0c0.01,-0.29 0.03,-0.56 0.06,-0.81 0.06,-0.57 0.15,-1.05 0.27,-1.45l0 -0.01c0.19,-0.59 0.47,-1.15 0.86,-1.69 0.37,-0.52 0.84,-1 1.41,-1.45l0.01 -0.01 1.81 -1.4c0.86,-0.66 1.58,-1.28 2.17,-1.83 0.58,-0.54 1.01,-1.02 1.28,-1.41l0.01 -0.01c0.48,-0.66 0.84,-1.4 1.08,-2.21 0.25,-0.82 0.37,-1.73 0.37,-2.71 0,-1.63 -0.27,-3.05 -0.84,-4.25 -0.55,-1.18 -1.38,-2.17 -2.49,-2.96l-0.01 -0.01c-1.14,-0.84 -2.45,-1.47 -3.92,-1.9 -1.47,-0.42 -3.11,-0.64 -4.93,-0.64 -1.37,0 -2.61,0.14 -3.74,0.44 -1.11,0.29 -2.12,0.72 -3.04,1.31l0 0zm-0.56 -0.89c-3.16,2.02 -4.81,5.44 -5.02,10.19l7.29 0c0,-1.39 0.42,-2.74 1.25,-4.03 0.82,-1.29 2.22,-1.91 4.13,-1.91 2.02,0 3.37,0.51 4.14,1.55 0.73,1.03 1.09,2.22 1.09,3.52 0,1.08 -0.31,2.12 -0.98,3.05 -0.42,0.51 -0.88,1.03 -1.5,1.5l-1.82 1.39c-1.81,1.45 -2.94,2.69 -3.41,3.78 -0.41,1.09 -0.67,3.05 -0.78,5.9l6.83 0c0,-1.35 0.11,-2.33 0.31,-3 0.31,-0.99 0.93,-1.87 1.92,-2.64l1.81 -1.4c1.81,-1.39 3.05,-2.58 3.67,-3.46 1.09,-1.5 1.66,-3.37 1.66,-5.54 0,-3.57 -1.25,-6.26 -3.78,-8.07 -2.48,-1.81 -5.64,-2.74 -9.47,-2.74 -2.89,0 -5.32,0.62 -7.34,1.91zm11.74 35.7l0 -7.3 -7.55 0 0 7.3 7.55 0zm-1.05 -1.05l0 -5.19 -5.45 0 0 5.19 5.45 0z"/>
  </g>
 </g>
</svg>
