<?xml version="1.0" encoding="UTF-8"?>
<!DOCTYPE svg PUBLIC "-//W3C//DTD SVG 1.1//EN" "http://www.w3.org/Graphics/SVG/1.1/DTD/svg11.dtd">
<!-- Creator: CorelDRAW 2021.5 -->
<svg xmlns="http://www.w3.org/2000/svg" xml:space="preserve" width="286px" height="275px" version="1.1" style="shape-rendering:geometricPrecision; text-rendering:geometricPrecision; image-rendering:optimizeQuality; fill-rule:evenodd; clip-rule:evenodd"
viewBox="0 0 87.81 84.55"
 xmlns:xlink="http://www.w3.org/1999/xlink"
 xmlns:xodm="http://www.corel.com/coreldraw/odm/2003">
 <defs>
  <style type="text/css">
   <![CDATA[
    .fil1 {fill:black}
    .fil0 {fill:lime;fill-rule:nonzero}
   ]]>
  </style>
 </defs>
 <g id="Слой_x0020_1">
  <metadata id="CorelCorpID_0Corel-Layer"/>
  <g>
   <polygon class="fil0" points="58.6,0.59 58.6,42.16 86.36,42.16 43.91,83.72 1.45,42.16 29.15,42.16 29.15,0.59 "/>
   <path id="_1" class="fil1" d="M59.2 0.59l0 40.97 27.16 0 1.45 0 -1.04 1.02 -42.45 41.56 -0.41 0.41 -0.42 -0.41 -42.45 -41.56 -1.04 -1.02 1.45 0 27.1 0 0 -40.97 0 -0.59 0.6 0 29.45 0 0.6 0 0 0.59zm-0.6 0l0 41.57 27.76 0 -42.45 41.56 -42.46 -41.56 27.7 0 0 -41.57 29.45 0z"/>
  </g>
 </g>
</svg>
