<?xml version="1.0" encoding="UTF-8"?>
<!DOCTYPE svg PUBLIC "-//W3C//DTD SVG 1.1//EN" "http://www.w3.org/Graphics/SVG/1.1/DTD/svg11.dtd">
<!-- Creator: CorelDRAW 2021.5 -->
<svg xmlns="http://www.w3.org/2000/svg" xml:space="preserve" width="291px" height="280px" version="1.1" style="shape-rendering:geometricPrecision; text-rendering:geometricPrecision; image-rendering:optimizeQuality; fill-rule:evenodd; clip-rule:evenodd"
viewBox="0 0 89.35 86.03"
 xmlns:xlink="http://www.w3.org/1999/xlink"
 xmlns:xodm="http://www.corel.com/coreldraw/odm/2003">
 <defs>
  <style type="text/css">
   <![CDATA[
    .fil1 {fill:black}
    .fil0 {fill:lime;fill-rule:nonzero}
   ]]>
  </style>
 </defs>
 <g id="Слой_x0020_1">
  <metadata id="CorelCorpID_0Corel-Layer"/>
  <g>
   <polygon class="fil0" points="59.63,85.42 59.63,43.13 87.87,43.13 44.67,0.85 1.48,43.13 29.65,43.13 29.65,85.42 "/>
   <path id="_1" class="fil1" d="M59.63 85.42l0 -42.29 28.24 0 -43.2 -42.28 -43.19 42.28 28.17 0 0 42.29 29.98 0zm0.6 -41.68l0 41.68 0 0.61 -0.6 0 -29.98 0 -0.6 0 0 -0.61 0 -41.68 -27.57 0 -1.48 0 1.06 -1.04 43.19 -42.28 0.42 -0.42 0.43 0.42 43.19 42.28 1.06 1.04 -1.48 0 -27.64 0z"/>
  </g>
 </g>
</svg>
