<?xml version="1.0" encoding="UTF-8"?>
<!DOCTYPE svg PUBLIC "-//W3C//DTD SVG 1.1//EN" "http://www.w3.org/Graphics/SVG/1.1/DTD/svg11.dtd">
<!-- Creator: CorelDRAW 2021.5 -->
<svg xmlns="http://www.w3.org/2000/svg" xml:space="preserve" width="286px" height="275px" version="1.1" style="shape-rendering:geometricPrecision; text-rendering:geometricPrecision; image-rendering:optimizeQuality; fill-rule:evenodd; clip-rule:evenodd"
viewBox="0 0 58.08 55.92"
 xmlns:xlink="http://www.w3.org/1999/xlink"
 xmlns:xodm="http://www.corel.com/coreldraw/odm/2003">
 <defs>
  <style type="text/css">
   <![CDATA[
    .fil1 {fill:black}
    .fil0 {fill:blue;fill-rule:nonzero}
   ]]>
  </style>
 </defs>
 <g id="Слой_x0020_1">
  <metadata id="CorelCorpID_0Corel-Layer"/>
  <g>
   <polygon class="fil0" points="38.76,55.52 38.76,28.04 57.11,28.04 29.04,0.55 0.96,28.04 19.28,28.04 19.28,55.52 "/>
   <path id="_1" class="fil1" d="M38.76 55.52l0 -27.48 18.35 0 -28.07 -27.49 -28.08 27.49 18.32 0 0 27.48 19.48 0zm0.39 -27.09l0 27.09 0 0.4 -0.39 0 -19.48 0 -0.4 0 0 -0.4 0 -27.09 -17.92 0 -0.96 0 0.69 -0.67 28.07 -27.49 0.28 -0.27 0.27 0.27 28.08 27.49 0.68 0.67 -0.96 0 -17.96 0z"/>
  </g>
 </g>
</svg>
