<?xml version="1.0" encoding="UTF-8"?>
<!DOCTYPE svg PUBLIC "-//W3C//DTD SVG 1.1//EN" "http://www.w3.org/Graphics/SVG/1.1/DTD/svg11.dtd">
<!-- Creator: CorelDRAW 2021.5 -->
<svg xmlns="http://www.w3.org/2000/svg" xml:space="preserve" width="286px" height="275px" version="1.1" style="shape-rendering:geometricPrecision; text-rendering:geometricPrecision; image-rendering:optimizeQuality; fill-rule:evenodd; clip-rule:evenodd"
viewBox="0 0 357.48 344.19"
 xmlns:xlink="http://www.w3.org/1999/xlink"
 xmlns:xodm="http://www.corel.com/coreldraw/odm/2003">
 <defs>
  <style type="text/css">
   <![CDATA[
    .fil1 {fill:black}
    .fil0 {fill:fuchsia;fill-rule:nonzero}
   ]]>
  </style>
 </defs>
 <g id="Слой_x0020_1">
  <metadata id="CorelCorpID_0Corel-Layer"/>
  <g>
   <polygon class="fil0" points="238.57,2.42 238.57,171.61 351.56,171.61 178.74,340.8 5.92,171.61 118.65,171.61 118.65,2.42 "/>
   <path id="_1" class="fil1" d="M240.99 2.42l0 166.77 110.57 0 5.91 0 -4.22 4.14 -172.82 169.19 -1.69 1.66 -1.69 -1.66 -172.82 -169.19 -4.22 -4.14 5.91 0 110.31 0 0 -166.77 0 -2.42 2.42 0 119.92 0 2.42 0 0 2.42zm-2.42 0l0 169.19 112.99 0 -172.82 169.19 -172.82 -169.19 112.73 0 0 -169.19 119.92 0z"/>
  </g>
 </g>
</svg>
