<?xml version="1.0" encoding="UTF-8"?>
<!DOCTYPE svg PUBLIC "-//W3C//DTD SVG 1.1//EN" "http://www.w3.org/Graphics/SVG/1.1/DTD/svg11.dtd">
<!-- Creator: CorelDRAW 2021.5 -->
<svg xmlns="http://www.w3.org/2000/svg" xml:space="preserve" width="286px" height="275px" version="1.1" style="shape-rendering:geometricPrecision; text-rendering:geometricPrecision; image-rendering:optimizeQuality; fill-rule:evenodd; clip-rule:evenodd"
viewBox="0 0 357.48 344.19"
 xmlns:xlink="http://www.w3.org/1999/xlink"
 xmlns:xodm="http://www.corel.com/coreldraw/odm/2003">
 <defs>
  <style type="text/css">
   <![CDATA[
    .fil1 {fill:black}
    .fil0 {fill:fuchsia;fill-rule:nonzero}
   ]]>
  </style>
 </defs>
 <g id="Слой_x0020_1">
  <metadata id="CorelCorpID_0Corel-Layer"/>
  <g>
   <polygon class="fil0" points="238.57,341.77 238.57,172.58 351.56,172.58 178.74,3.38 5.92,172.58 118.65,172.58 118.65,341.77 "/>
   <path id="_1" class="fil1" d="M238.57 341.77l0 -169.19 112.99 0 -172.82 -169.2 -172.82 169.2 112.73 0 0 169.19 119.92 0zm2.42 -166.78l0 166.78 0 2.42 -2.42 0 -119.92 0 -2.42 0 0 -2.42 0 -166.78 -110.31 0 -5.91 0 4.22 -4.13 172.82 -169.2 1.69 -1.65 1.69 1.65 172.82 169.2 4.22 4.13 -5.91 0 -110.57 0z"/>
  </g>
 </g>
</svg>
